<svg width="600" height="400" viewBox="0 0 600 400" fill="none" xmlns="http://www.w3.org/2000/svg">
  <rect width="600" height="400" rx="12" fill="#F5F7FA"/>
  <rect x="220" y="100" width="160" height="240" rx="20" fill="#1A1A1A"/>
  <rect x="245" y="120" width="110" height="190" rx="8" fill="#FFFFFF"/>
  <rect x="275" y="140" width="50" height="50" rx="6" fill="#242323"/>
  <path d="M300 152L300 178" stroke="#FFFFFF" stroke-width="4" stroke-linecap="round"/>
  <path d="M313 165L287 165" stroke="#FFFFFF" stroke-width="4" stroke-linecap="round"/>
  <path d="M275 210H325" stroke="#1A1A1A" stroke-width="2"/>
  <path d="M275 230H325" stroke="#1A1A1A" stroke-width="2"/>
  <path d="M275 250H325" stroke="#1A1A1A" stroke-width="2"/>
  <path d="M275 270H305" stroke="#1A1A1A" stroke-width="2"/>
  <circle cx="280" cy="350" r="10" fill="#1A1A1A"/>
  <circle cx="300" cy="350" r="10" fill="#1A1A1A"/>
  <circle cx="320" cy="350" r="10" fill="#1A1A1A"/>
  <rect x="410" y="150" width="120" height="20" rx="4" fill="#242323" fill-opacity="0.2"/>
  <rect x="410" y="180" width="100" height="20" rx="4" fill="#242323" fill-opacity="0.2"/>
  <rect x="410" y="210" width="80" height="20" rx="4" fill="#242323" fill-opacity="0.2"/>
  <rect x="70" y="150" width="120" height="20" rx="4" fill="#242323" fill-opacity="0.2"/>
  <rect x="70" y="180" width="100" height="20" rx="4" fill="#242323" fill-opacity="0.2"/>
  <rect x="70" y="210" width="80" height="20" rx="4" fill="#242323" fill-opacity="0.2"/>
</svg> 