<svg width="140" height="40" viewBox="0 0 140 40" fill="none" xmlns="http://www.w3.org/2000/svg">
  <!-- Signal Icon with animation-ready elements -->
  <g class="signal-icon">
    <!-- Outer circle with gradient -->
    <circle cx="20" cy="20" r="12" fill="url(#signalGradient)" />
    
    <!-- Signal waves -->
    <path d="M20 8C13.3724 8 8 13.3724 8 20.0002C8 26.6276 13.3724 32 20 32" stroke="#242323" stroke-width="2" stroke-linecap="round" class="signal-wave outer-wave" />
    <path d="M20 12C15.5817 12 12 15.5817 12 20C12 24.4183 15.5817 28 20 28" stroke="#4A4A4A" stroke-width="2" stroke-linecap="round" class="signal-wave middle-wave" />
    
    <!-- Mobile device icon -->
    <rect x="16" y="14" width="8" height="14" rx="1.5" stroke="#FFFFFF" stroke-width="1.5" />
    <line x1="17.5" y1="25" x2="22.5" y2="25" stroke="#FFFFFF" stroke-width="1" stroke-linecap="round" />
  </g>
  
  <!-- "ROMIO" text with clean, modern font -->
  <path d="M44 24V11.6H54.2C55.6 11.6 56.8 11.9 57.8 12.5C58.8 13.1 59.6 13.9 60.1 14.9C60.6 15.9 60.9 17 60.9 18.1C60.9 19.3 60.6 20.3 60.1 21.3C59.5 22.3 58.8 23 57.8 23.6C56.8 24.1 55.6 24.4 54.2 24.4H47V24H44ZM47 21.6H54C54.9 21.6 55.7 21.4 56.2 20.9C56.8 20.5 57.1 19.8 57.1 18.8C57.1 17.9 56.8 17.1 56.2 16.6C55.7 16.1 54.9 15.9 54 15.9H47V21.6Z" fill="#0D0D0D"/>
  <path d="M65 24.4C63.8 24.4 62.7 24.1 61.8 23.6C60.9 23 60.2 22.3 59.7 21.3C59.2 20.3 59 19.2 59 18C59 16.8 59.2 15.7 59.7 14.7C60.2 13.7 60.9 12.9 61.8 12.4C62.7 11.8 63.8 11.6 65 11.6C66.2 11.6 67.3 11.8 68.2 12.4C69.1 12.9 69.8 13.7 70.3 14.7C70.8 15.7 71 16.8 71 18C71 19.2 70.8 20.3 70.3 21.3C69.8 22.3 69.1 23 68.2 23.6C67.3 24.1 66.2 24.4 65 24.4ZM65 21.4C65.8 21.4 66.4 21.2 67 20.8C67.5 20.4 68 19.9 68.3 19.2C68.6 18.5 68.7 17.9 68.7 17.1C68.7 16.3 68.6 15.6 68.3 15C68 14.3 67.5 13.8 67 13.4C66.4 13 65.8 12.8 65 12.8C64.2 12.8 63.6 13 63 13.4C62.5 13.8 62 14.3 61.7 15C61.4 15.7 61.3 16.4 61.3 17.1C61.3 17.9 61.4 18.6 61.7 19.2C62 19.9 62.5 20.4 63 20.8C63.6 21.2 64.2 21.4 65 21.4Z" fill="#0D0D0D"/>
  <path d="M84 11.6V24H81.5V23.2C81.1 23.5 80.6 23.8 80 24C79.4 24.2 78.8 24.4 78.2 24.4C77.1 24.4 76.1 24.1 75.3 23.6C74.4 23 73.8 22.3 73.3 21.3C72.8 20.3 72.6 19.2 72.6 18C72.6 16.8 72.8 15.7 73.3 14.7C73.8 13.7 74.4 13 75.3 12.4C76.1 11.8 77.1 11.6 78.2 11.6C78.8 11.6 79.4 11.7 80 11.9C80.6 12.1 81.1 12.4 81.5 12.7V11.6H84ZM78.7 21.6C79.8 21.6 80.6 21.2 81.2 20.6C81.8 19.9 82.1 19 82.1 17.9C82.1 16.8 81.8 16 81.2 15.3C80.6 14.6 79.8 14.3 78.7 14.3C77.6 14.3 76.8 14.6 76.2 15.3C75.6 16 75.3 16.8 75.3 17.9C75.3 19 75.6 19.9 76.2 20.6C76.8 21.2 77.6 21.6 78.7 21.6Z" fill="#0D0D0D"/>
  <path d="M85.9 24V11.6H88.4V24H85.9Z" fill="#0D0D0D"/>
  <path d="M98.3 24.4C97.1 24.4 96 24.1 95.1 23.6C94.1 23 93.4 22.3 92.9 21.3C92.4 20.3 92.1 19.2 92.1 18C92.1 16.8 92.4 15.7 92.9 14.7C93.4 13.7 94.1 12.9 95.1 12.4C96 11.8 97.1 11.6 98.3 11.6C99.7 11.6 100.9 11.9 101.8 12.6C102.8 13.2 103.4 14.1 103.8 15.3H101.1C100.9 14.8 100.5 14.3 100 14C99.5 13.7 98.9 13.5 98.3 13.5C97.3 13.5 96.5 13.8 95.9 14.5C95.3 15.2 95 16.1 95 17.2C95 18.3 95.3 19.2 95.9 19.9C96.5 20.6 97.3 20.9 98.3 20.9C98.9 20.9 99.5 20.7 100 20.4C100.5 20.1 100.9 19.6 101.1 19.1H103.8C103.4 20.3 102.8 21.2 101.8 21.8C100.9 22.4 99.7 22.8 98.3 22.8V24.4Z" fill="#0D0D0D"/>
  
  <!-- Gradient definitions -->
  <defs>
    <linearGradient id="signalGradient" x1="8" y1="8" x2="32" y2="32" gradientUnits="userSpaceOnUse">
      <stop offset="0%" stop-color="#363636" />
      <stop offset="100%" stop-color="#242323" />
    </linearGradient>
  </defs>
</svg> 