<svg width="800" height="400" viewBox="0 0 800 400" fill="none" xmlns="http://www.w3.org/2000/svg">
  <rect width="800" height="400" fill="#F5F7FA"/>
  <path d="M118 158C121.333 161.333 130.6 166.4 142 160C156.5 152 171 146 181 148.5C191 151 209 148.5 215.5 140C222 131.5 228 131.5 232 133.5C236 135.5 248.5 135.5 252.5 131.5C256.5 127.5 269.5 119 280 123C290.5 127 296 125 302 119C308 113 322 111.5 328 116.5C334 121.5 351 125 368.5 120C386 115 400 116.5 407 120C414 123.5 424.5 123.5 433 120C441.5 116.5 454.5 108 463.5 105C472.5 102 480 97 488 102C496 107 509 107 515.5 102C522 97 527 92 534.5 92C542 92 554 97 561 104C568 111 572.5 113 579 110C585.5 107 593.5 100.5 600 92C606.5 83.5 612.5 83.5 618.5 87.5C624.5 91.5 636 91.5 641.5 87.5C647 83.5 654.5 80 662.5 87.5C670.5 95 686 99 695 95C704 91 708.5 91 712.5 95" stroke="#242323" stroke-width="2"/>
  <circle cx="200" cy="150" r="10" fill="#242323" fill-opacity="0.3"/>
  <circle cx="300" cy="120" r="10" fill="#242323" fill-opacity="0.3"/>
  <circle cx="400" cy="120" r="10" fill="#242323" fill-opacity="0.3"/>
  <circle cx="500" cy="105" r="10" fill="#242323" fill-opacity="0.3"/>
  <circle cx="600" cy="90" r="10" fill="#242323" fill-opacity="0.3"/>
  <circle cx="700" cy="95" r="10" fill="#242323" fill-opacity="0.3"/>
  <circle cx="120" cy="160" r="10" fill="#242323" fill-opacity="0.3"/>
  <path d="M186 248C190 243.333 202 234 218 234C238 234 246 244 253 248C260 252 273 260 279 252C285 244 296 244 303 248C310 252 323 260 331 260C339 260 349 256 357 248C365 240 373 232 380 232C387 232 399 236 405 248C411 260 426 268 439 264C452 260 464 248 471 240C478 232 489 224 497 232C505 240 524 248 535 248C546 248 560 236 565 228C570 220 581 208 589 216C597 224 612 228 618 224C624 220 632 208 640 204C648 200 656 196 668 204C680 212 692 220 702 216" stroke="#242323" stroke-width="2"/>
  <circle cx="200" cy="240" r="10" fill="#242323" fill-opacity="0.3"/>
  <circle cx="300" cy="250" r="10" fill="#242323" fill-opacity="0.3"/>
  <circle cx="400" cy="240" r="10" fill="#242323" fill-opacity="0.3"/>
  <circle cx="500" cy="240" r="10" fill="#242323" fill-opacity="0.3"/>
  <circle cx="600" cy="220" r="10" fill="#242323" fill-opacity="0.3"/>
  <circle cx="700" cy="210" r="10" fill="#242323" fill-opacity="0.3"/>
  <circle cx="250" cy="200" r="18" fill="#242323" fill-opacity="0.5"/>
  <circle cx="350" cy="180" r="18" fill="#242323" fill-opacity="0.5"/>
  <circle cx="450" cy="210" r="18" fill="#242323" fill-opacity="0.5"/>
  <circle cx="550" cy="170" r="18" fill="#242323" fill-opacity="0.5"/>
  <circle cx="650" cy="180" r="18" fill="#242323" fill-opacity="0.5"/>
  <circle cx="150" cy="200" r="18" fill="#242323" fill-opacity="0.5"/>
</svg> 